<svg width="184" height="139" viewBox="0 0 184 139" fill="none" xmlns="http://www.w3.org/2000/svg">
<path d="M26.0707 92.3806C26.0332 91.9607 26.1082 92.8006 26.0707 92.3806C25.9743 92.02 26.1029 92.7412 26.0707 92.3806C26.1243 91.4038 26.1243 90.4223 26.2422 89.4546C26.4833 87.5192 26.7083 85.5792 27.0833 83.6574C27.9191 79.4123 28.7764 75.1716 29.7461 70.9493C30.7587 66.5261 32.0071 62.144 33.4858 57.8166C35.2539 52.6585 37.2737 47.5734 40.0437 42.7303C42.0314 39.2519 44.2923 35.9243 47.5016 33.1398C49.4679 31.4372 51.686 30.0175 54.4505 29.4287C56.7544 28.9357 59.1118 28.9174 61.4692 29.1868C63.9337 29.4698 66.2161 30.2321 68.4556 31.1039C71.8899 32.4414 75.426 33.5095 79.1335 34.1349C82.0428 34.6279 84.9949 34.8789 87.9523 34.9109C91.5259 34.9474 95.1156 34.92 98.6785 34.7055C104.336 34.3677 109.721 33.0531 114.859 30.9944C117.291 30.0221 119.783 29.2187 122.504 28.9905C126.892 28.6207 130.868 29.3602 134.302 31.8525C137.163 33.9249 139.311 36.4675 141.197 39.1972C143.506 42.5385 145.301 46.0807 146.914 49.7006C148.977 54.3292 150.622 59.0765 151.961 63.8923C152.877 67.1788 153.793 70.47 154.586 73.7794C155.342 76.9336 155.99 80.1061 156.601 83.2877C157.195 86.378 157.753 89.4774 157.903 92.618C158.074 96.3565 157.924 100.063 156.435 103.637C155.706 105.381 154.656 106.969 152.963 108.188C151.206 109.453 149.186 109.886 146.909 109.69C142.912 109.348 139.483 107.869 136.252 105.961C132.957 104.011 130.08 101.656 127.267 99.2414C125.108 97.3927 122.986 95.5074 120.779 93.6998C119.343 92.5221 117.822 91.4175 116.279 90.3402C114.264 88.9342 111.923 88.1719 109.351 87.8068C106.222 87.364 103.083 87.0627 99.9215 86.9349C96.9479 86.8162 93.9691 86.798 90.9955 86.8162C88.2952 86.8345 85.5949 86.9303 82.9 87.0582C79.4979 87.2179 76.1171 87.5557 72.7954 88.2085C71.0005 88.5599 69.4093 89.2629 67.9091 90.2032C64.7374 92.1843 62.0746 94.6173 59.3529 97.0047C56.3686 99.6202 53.4004 102.259 50.1108 104.605C47.6195 106.376 44.9567 107.937 41.9189 108.955C40.1294 109.558 38.297 110.014 36.3308 110.087C33.4215 110.197 31.2195 109.17 29.4729 107.28C27.7798 105.449 26.9333 103.304 26.4672 101.049C26.2475 99.9854 26.194 98.899 26.06 97.7807C25.9797 98.4197 26.135 97.1736 26.06 97.7807C26.0439 94.5854 26.0814 95.5805 26.0654 92.3852L26.0707 92.3806ZM64.7052 74.8339C74.976 74.9206 83.0125 68.1785 83.4679 59.7018C83.9501 50.682 75.7046 43.2461 65.1231 43.1593C54.7345 43.0772 46.7354 49.8649 46.3015 58.3096C45.8086 67.8316 54.9542 74.9662 64.7052 74.8339ZM118.1 52.4805C121.352 52.4896 123.779 50.4857 123.795 47.7743C123.812 45.1632 121.245 42.995 118.122 42.9859C115.03 42.9767 112.341 45.1176 112.33 47.5962C112.314 50.4309 114.719 52.4713 118.1 52.4805ZM136.274 58.4511C136.316 55.8173 133.82 53.5669 130.809 53.5258C127.664 53.4847 125.113 55.6073 125.076 58.305C125.038 61.0758 127.46 63.276 130.589 63.3125C133.739 63.349 136.231 61.2173 136.274 58.4511ZM99.9858 58.4922C99.8304 61.231 102.756 63.4084 105.451 63.3947C108.74 63.3764 111.119 61.3086 111.103 58.4557C111.087 55.7762 108.569 53.5897 105.51 53.5988C102.445 53.608 99.959 55.8127 99.9858 58.4968V58.4922ZM112.426 69.1325C112.426 71.7709 115.03 73.9118 118.223 73.9072C121.331 73.9072 123.887 71.8348 123.887 69.3334C123.887 66.5443 121.433 64.4309 118.213 64.4446C114.907 64.4583 112.426 66.4713 112.426 69.1371V69.1325Z" fill="black"/>
<path d="M64.8764 70.1505C57.8632 70.1003 51.8625 65.2845 51.809 59.0309C51.7554 52.9507 57.6649 47.893 64.7532 47.8793C72.1093 47.861 78.0189 52.8913 77.9868 59.0628C77.9546 65.0973 71.9486 70.1824 64.8764 70.155V70.1505Z" fill="black"/>
<path d="M53.5719 72.483C53.3844 72.3643 53.1969 72.2457 53.0094 72.1224C44.5656 66.4804 43.0869 56.0409 49.7037 48.8515C52.9129 45.3686 57.5152 43.1548 62.6747 42.6253C67.8342 42.0912 72.9294 43.3008 77.0173 46.0351C81.1052 48.7648 83.7037 52.6904 84.3252 57.0863C84.9467 61.4821 83.5269 65.8231 80.323 69.306C77.1191 72.7889 72.5115 75.0027 67.352 75.5322C62.4282 76.0389 57.5581 74.9571 53.5719 72.483ZM72.565 50.2301C69.9344 48.5959 66.7251 47.8838 63.473 48.217C60.0709 48.5685 57.0277 50.0246 54.9114 52.3253C50.5448 57.0726 51.5199 63.9607 57.092 67.6809C59.7922 69.4931 63.1515 70.2828 66.5537 69.9313C69.9558 69.5799 72.999 68.1192 75.1153 65.8231C77.2316 63.5225 78.1692 60.6604 77.7567 57.7618C77.3441 54.8632 75.6297 52.2705 72.9347 50.4674C72.8115 50.3853 72.6883 50.3077 72.565 50.2301Z" fill="#00A99D"/>
</svg>
